<svg width="206" height="206" viewBox="0 0 206 206" version="1.1" xmlns="http://www.w3.org/2000/svg" xmlns:xlink="http://www.w3.org/1999/xlink">
<title>Group 3</title>
<desc>Created using Figma</desc>
<g id="Canvas" transform="translate(889 -15)">
<g id="Group 3">
<g id="Rectangle 2">
<use xlink:href="#path0_fill" transform="translate(-889 15)" fill="#FCB8B8"/>
</g>
<g id="Rectangle">
<mask id="mask0_outline_ins">
<use xlink:href="#path1_fill" fill="white" transform="translate(-832 56.0724)"/>
</mask>
<g mask="url(#mask0_outline_ins)">
<use xlink:href="#path2_stroke_2x" transform="translate(-832 56.0724)" fill="#FFFFFF"/>
</g>
</g>
<g id="Vector 2">
<use xlink:href="#path3_stroke" transform="translate(-823.154 61.0435)" fill="#FFFFFF"/>
</g>
<g id="Rectangle 2">
<use xlink:href="#path4_fill" transform="translate(-809.354 50.3913)" fill="#FCB8B8"/>
</g>
<g id="Rectangle 3">
<use xlink:href="#path5_fill" transform="translate(-764.416 61.3986)" fill="#FCB8B8"/>
</g>
<g id="Group 2">
<g id="Vector">
<use xlink:href="#path6_stroke" transform="translate(-809.354 44)" fill="#FFFFFF"/>
</g>
<g id="Ellipse">
<mask id="mask1_outline_ins">
<use xlink:href="#path7_fill" fill="white" transform="translate(-790.246 47.5507)"/>
</mask>
<g mask="url(#mask1_outline_ins)">
<use xlink:href="#path8_stroke_2x" transform="translate(-790.246 47.5507)" fill="#FFFFFF"/>
</g>
</g>
</g>
<g id="Rectangle 4">
<mask id="mask2_outline_ins">
<use xlink:href="#path9_fill" fill="white" transform="translate(-816.431 76.6667)"/>
</mask>
<g mask="url(#mask2_outline_ins)">
<use xlink:href="#path10_stroke_2x" transform="translate(-816.431 76.6667)" fill="#FFFFFF"/>
</g>
</g>
<g id="Rectangle 4.3">
<mask id="mask3_outline_ins">
<use xlink:href="#path11_fill" fill="white" transform="translate(-802.984 76.6667)"/>
</mask>
<g mask="url(#mask3_outline_ins)">
<use xlink:href="#path12_stroke_2x" transform="translate(-802.984 76.6667)" fill="#FFFFFF"/>
</g>
</g>
<g id="Rectangle 4.4">
<mask id="mask4_outline_ins">
<use xlink:href="#path11_fill" fill="white" transform="translate(-802.984 91.5797)"/>
</mask>
<g mask="url(#mask4_outline_ins)">
<use xlink:href="#path12_stroke_2x" transform="translate(-802.984 91.5797)" fill="#FFFFFF"/>
</g>
</g>
<g id="Rectangle 4.5">
<mask id="mask5_outline_ins">
<use xlink:href="#path11_fill" fill="white" transform="translate(-802.984 106.493)"/>
</mask>
<g mask="url(#mask5_outline_ins)">
<use xlink:href="#path12_stroke_2x" transform="translate(-802.984 106.493)" fill="#FFFFFF"/>
</g>
</g>
<g id="Rectangle 4.1">
<mask id="mask6_outline_ins">
<use xlink:href="#path9_fill" fill="white" transform="translate(-816.431 91.5797)"/>
</mask>
<g mask="url(#mask6_outline_ins)">
<use xlink:href="#path10_stroke_2x" transform="translate(-816.431 91.5797)" fill="#FFFFFF"/>
</g>
</g>
<g id="Rectangle 4.2">
<mask id="mask7_outline_ins">
<use xlink:href="#path9_fill" fill="white" transform="translate(-816.431 106.493)"/>
</mask>
<g mask="url(#mask7_outline_ins)">
<use xlink:href="#path10_stroke_2x" transform="translate(-816.431 106.493)" fill="#FFFFFF"/>
</g>
</g>
</g>
</g>
<defs>
<path id="path0_fill" d="M 0 25C 0 11.1929 11.1929 0 25 0L 181 0C 194.807 0 206 11.1929 206 25L 206 181C 206 194.807 194.807 206 181 206L 25 206C 11.1929 206 0 194.807 0 181L 0 25Z"/>
<path id="path1_fill" d="M 0 6.99999C 0 3.134 3.13401 0 7 0L 85 0C 88.866 0 92 3.13401 92 7L 92 127.928C 92 131.794 88.866 134.928 85 134.928L 7 134.928C 3.13401 134.928 0 131.794 0 127.928L 0 6.99999Z"/>
<path id="path2_stroke_2x" d="M 7 2L 85 2L 85 -2L 7 -2L 7 2ZM 90 7L 90 127.928L 94 127.928L 94 7L 90 7ZM 85 132.928L 7 132.928L 7 136.928L 85 136.928L 85 132.928ZM 2 127.928L 2 6.99999L -2 6.99999L -2 127.928L 2 127.928ZM 7 132.928C 4.23858 132.928 2 130.689 2 127.928L -2 127.928C -2 132.898 2.02944 136.928 7 136.928L 7 132.928ZM 90 127.928C 90 130.689 87.7614 132.928 85 132.928L 85 136.928C 89.9706 136.928 94 132.898 94 127.928L 90 127.928ZM 85 2C 87.7614 2 90 4.23858 90 7L 94 7C 94 2.02944 89.9706 -2 85 -2L 85 2ZM 7 -2C 2.02944 -2 -2 2.02943 -2 6.99999L 2 6.99999C 2 4.23857 4.23857 2 7 2L 7 -2Z"/>
<path id="path3_stroke" d="M 13.4462 -1L 7 -1L 7 1L 13.4462 1L 13.4462 -1ZM -1 7L -1 113.014L 1 113.014L 1 7L -1 7ZM 7 121.014L 66.2461 121.014L 66.2461 119.014L 7 119.014L 7 121.014ZM 74.2462 113.014L 74.2462 7L 72.2462 7L 72.2462 113.014L 74.2462 113.014ZM 66.2462 -1L 61.5692 -1L 61.5692 1L 66.2462 1L 66.2462 -1ZM 60.5692 0L 60.5692 2.48551L 62.5692 2.48551L 62.5692 0L 60.5692 0ZM 61.5692 -1L 13.4462 -1L 13.4462 1L 61.5692 1L 61.5692 -1ZM 74.2462 7C 74.2462 2.58172 70.6644 -1 66.2462 -1L 66.2462 1C 69.5599 1 72.2462 3.68629 72.2462 7L 74.2462 7ZM 66.2461 121.014C 70.6644 121.014 74.2462 117.433 74.2462 113.014L 72.2462 113.014C 72.2462 116.328 69.5599 119.014 66.2461 119.014L 66.2461 121.014ZM -1 113.014C -1 117.433 2.58172 121.014 7 121.014L 7 119.014C 3.68629 119.014 1 116.328 1 113.014L -1 113.014ZM 7 -1C 2.58172 -1 -1 2.58172 -1 7L 1 7C 1 3.68629 3.68629 1 7 1L 7 -1ZM 13.4462 -1C 13.4462 -1 13.4462 -1 13.4462 -1C 13.4462 -1 13.4462 -1 13.4462 -1C 13.4462 -1 13.4462 -1 13.4462 -1C 13.4462 -1 13.4462 -1 13.4462 -1C 13.4462 -1 13.4462 -1 13.4462 -1C 13.4462 -1 13.4462 -1 13.4462 -1C 13.4462 -1 13.4462 -1 13.4462 -1C 13.4462 -1 13.4462 -1 13.4462 -1C 13.4462 -1 13.4462 -1 13.4462 -1C 13.4462 -1 13.4462 -1 13.4462 -1C 13.4462 -1 13.4462 -1 13.4462 -1C 13.4462 -1 13.4462 -1 13.4462 -1C 13.4462 -1 13.4462 -1 13.4462 -1C 13.4462 -1 13.4462 -1 13.4462 -1C 13.4462 -1 13.4462 -1 13.4462 -1C 13.4462 -1 13.4462 -1 13.4462 -1C 13.4462 -1 13.4462 -1 13.4462 -1C 13.4462 -1 13.4462 -1 13.4462 -1C 13.4462 -1 13.4462 -1 13.4462 -1C 13.4462 -1 13.4462 -1 13.4462 -1C 13.4462 -1 13.4462 -1 13.4462 -1C 13.4462 -1 13.4462 -1 13.4462 -1C 13.4462 -1 13.4462 -1 13.4462 -1C 13.4462 -1 13.4462 -1 13.4462 -1C 13.4462 -1 13.4462 -1 13.4462 -1C 13.4462 -1 13.4462 -1 13.4462 -1C 13.4462 -1 13.4462 -1 13.4462 -1C 13.4462 -1 13.4462 -1 13.4462 -1C 13.4462 -1 13.4462 -1 13.4462 -1C 13.4462 -1 13.4462 -1 13.4462 -1C 13.4462 -1 13.4462 -1 13.4462 -1C 13.4462 -1 13.4462 -1 13.4462 -1C 13.4462 -1 13.4462 -1 13.4462 -1C 13.4462 -1 13.4462 -1 13.4462 -1C 13.4462 -1 13.4462 -1 13.4462 -1C 13.4462 -1 13.4462 -1 13.4462 -1C 13.4462 -1 13.4462 -1 13.4462 -1C 13.4462 -1 13.4462 -1 13.4462 -1C 13.4462 -1 13.4462 -1 13.4462 -1C 13.4462 -1 13.4462 -1 13.4462 -1C 13.4462 -1 13.4462 -1 13.4462 -1C 13.4462 -1 13.4462 -1 13.4462 -1C 13.4462 -1 13.4462 -1 13.4462 -1C 13.4462 -1 13.4462 -1 13.4462 -1C 13.4462 -1 13.4462 -1 13.4462 -1C 13.4462 -1 13.4462 -1 13.4462 -1C 13.4462 -1 13.4462 -1 13.4462 -1C 13.4462 -1 13.4462 -1 13.4462 -1C 13.4462 -1 13.4462 -1 13.4462 -1C 13.4462 -1 13.4462 -1 13.4462 -1C 13.4462 -1 13.4462 -1 13.4462 -1C 13.4462 -1 13.4462 -1 13.4462 -1C 13.4462 -1 13.4462 -1 13.4462 -1C 13.4462 -1 13.4462 -1 13.4462 -1C 13.4462 -1 13.4462 -1 13.4462 -1C 13.4462 -1 13.4462 -1 13.4462 -1C 13.4462 -1 13.4462 -1 13.4462 -1C 13.4462 -1 13.4462 -1 13.4462 -1C 13.4462 -1 13.4462 -1 13.4462 -1C 13.4462 -1 13.4462 -1 13.4462 -1C 13.4462 -1 13.4462 -1 13.4462 -1C 13.4462 -1 13.4462 -1 13.4462 -1C 13.4462 -1 13.4462 -1 13.4462 -1C 13.4462 -1 13.4462 -1 13.4462 -1C 13.4462 -1 13.4462 -1 13.4462 -1C 13.4462 -1 13.4462 -1 13.4462 -1C 13.4462 -1 13.4462 -1 13.4462 -1C 13.4462 -1 13.4462 -1 13.4462 -1C 13.4462 -1 13.4462 -1 13.4462 -1C 13.4462 -1 13.4462 -1 13.4462 -1C 13.4462 -1 13.4462 -1 13.4462 -1C 13.4462 -1 13.4462 -1 13.4462 -1C 13.4462 -1 13.4462 -1 13.4462 -1C 13.4462 -1 13.4462 -1 13.4462 -1C 13.4462 -1 13.4462 -1 13.4462 -1C 13.4462 -1 13.4462 -1 13.4462 -1C 13.4462 -1 13.4462 -1 13.4462 -1C 13.4462 -1 13.4462 -1 13.4462 -1C 13.4462 -1 13.4462 -1 13.4462 -1C 13.4462 -1 13.4462 -1 13.4462 -1C 13.4462 -1 13.4462 -1 13.4462 -1C 13.4462 -1 13.4462 -1 13.4462 -1C 13.4462 -1 13.4462 -1 13.4462 -1C 13.4462 -1 13.4462 -1 13.4462 -1C 13.4462 -1 13.4462 -1 13.4462 -1C 13.4462 -1 13.4462 -1 13.4462 -1C 13.4462 -1 13.4462 -1 13.4462 -1C 13.4462 -1 13.4462 -1 13.4462 -1C 13.4462 -1 13.4462 -1 13.4462 -1C 13.4462 -1 13.4462 -1 13.4462 -1C 13.4462 -1 13.4462 -1 13.4462 -1C 13.4462 -1 13.4462 -1 13.4462 -1C 13.4462 -1 13.4462 -1 13.4462 -1C 13.4462 -1 13.4462 -1 13.4462 -1C 13.4462 -1 13.4462 -1 13.4462 -1C 13.4462 -1 13.4462 -1 13.4462 -1C 13.4462 -1 13.4462 -1 13.4462 -1C 13.4462 -1 13.4462 -1 13.4462 -1C 13.4462 -1 13.4462 -1 13.4462 -1C 13.4462 -1 13.4462 -1 13.4462 -1C 13.4462 -1 13.4462 -1 13.4462 -1C 13.4462 -1 13.4462 -1 13.4462 -1C 13.4462 -1 13.4462 -1 13.4462 -1C 13.4462 -1 13.4462 -1 13.4462 -1C 13.4462 -1 13.4462 -1 13.4462 -1C 13.4462 -1 13.4462 -1 13.4462 -1C 13.4462 -1 13.4462 -1 13.4462 -1C 13.4462 -1 13.4462 -1 13.4462 -1C 13.4462 0 13.4462 1 13.4462 1C 13.4462 1 13.4462 1 13.4462 1C 13.4462 1 13.4462 1 13.4462 1C 13.4462 1 13.4462 1 13.4462 1C 13.4462 1 13.4462 1 13.4462 1C 13.4462 1 13.4462 1 13.4462 1C 13.4462 1 13.4462 1 13.4462 1C 13.4462 1 13.4462 1 13.4462 1C 13.4462 1 13.4462 1 13.4462 1C 13.4462 1 13.4462 1 13.4462 1C 13.4462 1 13.4462 1 13.4462 1C 13.4462 1 13.4462 1 13.4462 1C 13.4462 1 13.4462 1 13.4462 1C 13.4462 1 13.4462 1 13.4462 1C 13.4462 1 13.4462 1 13.4462 1C 13.4462 1 13.4462 1 13.4462 1C 13.4462 1 13.4462 1 13.4462 1C 13.4462 1 13.4462 1 13.4462 1C 13.4462 1 13.4462 1 13.4462 1C 13.4462 1 13.4462 1 13.4462 1C 13.4462 1 13.4462 1 13.4462 1C 13.4462 1 13.4462 1 13.4462 1C 13.4462 1 13.4462 1 13.4462 1C 13.4462 1 13.4462 1 13.4462 1C 13.4462 1 13.4462 1 13.4462 1C 13.4462 1 13.4462 1 13.4462 1C 13.4462 1 13.4462 1 13.4462 1C 13.4462 1 13.4462 1 13.4462 1C 13.4462 1 13.4462 1 13.4462 1C 13.4462 1 13.4462 1 13.4462 1C 13.4462 1 13.4462 1 13.4462 1C 13.4462 1 13.4462 1 13.4462 1C 13.4462 1 13.4462 1 13.4462 1C 13.4462 1 13.4462 1 13.4462 1C 13.4462 1 13.4462 1 13.4462 1C 13.4462 1 13.4462 1 13.4462 1C 13.4462 1 13.4462 1 13.4462 1C 13.4462 1 13.4462 1 13.4462 1C 13.4462 1 13.4462 1 13.4462 1C 13.4462 1 13.4462 1 13.4462 1C 13.4462 1 13.4462 1 13.4462 1C 13.4462 1 13.4462 1 13.4462 1C 13.4462 1 13.4462 1 13.4462 1C 13.4462 1 13.4462 1 13.4462 1C 13.4462 1 13.4462 1 13.4462 1C 13.4462 1 13.4462 1 13.4462 1C 13.4462 1 13.4462 1 13.4462 1C 13.4462 1 13.4462 1 13.4462 1C 13.4462 1 13.4462 1 13.4462 1C 13.4462 1 13.4462 1 13.4462 1C 13.4462 1 13.4462 1 13.4462 1C 13.4462 1 13.4462 1 13.4462 1C 13.4462 1 13.4462 1 13.4462 1C 13.4462 1 13.4462 1 13.4462 1C 13.4462 1 13.4462 1 13.4462 1C 13.4462 1 13.4462 1 13.4462 1C 13.4462 1 13.4462 1 13.4462 1C 13.4462 1 13.4462 1 13.4462 1C 13.4462 1 13.4462 1 13.4462 1C 13.4462 1 13.4462 1 13.4462 1C 13.4462 1 13.4462 1 13.4462 1C 13.4462 1 13.4462 1 13.4462 1C 13.4462 1 13.4462 1 13.4462 1C 13.4462 1 13.4462 1 13.4462 1C 13.4462 1 13.4462 1 13.4462 1C 13.4462 1 13.4462 1 13.4462 1C 13.4462 1 13.4462 1 13.4462 1C 13.4462 1 13.4462 1 13.4462 1C 13.4462 1 13.4462 1 13.4462 1C 13.4462 1 13.4462 1 13.4462 1C 13.4462 1 13.4462 1 13.4462 1C 13.4462 1 13.4462 1 13.4462 1C 13.4462 1 13.4462 1 13.4462 1C 13.4462 1 13.4462 1 13.4462 1C 13.4462 1 13.4462 1 13.4462 1C 13.4462 1 13.4462 1 13.4462 1C 13.4462 1 13.4462 1 13.4462 1C 13.4462 1 13.4462 1 13.4462 1C 13.4462 1 13.4462 1 13.4462 1C 13.4462 1 13.4462 1 13.4462 1C 13.4462 1 13.4462 1 13.4462 1C 13.4462 1 13.4462 1 13.4462 1C 13.4462 1 13.4462 1 13.4462 1C 13.4462 1 13.4462 1 13.4462 1C 13.4462 1 13.4462 1 13.4462 1C 13.4462 1 13.4462 1 13.4462 1C 13.4462 1 13.4462 1 13.4462 1C 13.4462 1 13.4462 1 13.4462 1C 13.4462 1 13.4462 1 13.4462 1C 13.4462 1 13.4462 1 13.4462 1C 13.4462 1 13.4462 1 13.4462 1C 13.4462 1 13.4462 1 13.4462 1C 13.4462 1 13.4462 1 13.4462 1C 13.4462 1 13.4462 1 13.4462 1C 13.4462 1 13.4462 1 13.4462 1C 13.4462 1 13.4462 1 13.4462 1C 13.4462 1 13.4462 1 13.4462 1C 13.4462 1 13.4462 1 13.4462 1C 13.4462 1 13.4462 1 13.4462 1C 13.4462 1 13.4462 1 13.4462 1C 13.4462 1 13.4462 1 13.4462 1C 13.4462 1 13.4462 1 13.4462 1C 13.4462 1 13.4462 1 13.4462 1C 13.4462 1 13.4462 1 13.4462 1C 13.4462 1 13.4462 1 13.4462 1C 13.4462 1 13.4462 1 13.4462 1C 13.4462 1 13.4462 1 13.4462 1C 13.4462 1 13.4462 1 13.4462 1C 13.4462 1 13.4462 1 13.4462 1C 13.4462 1 13.4462 1 13.4462 1C 13.4462 1 13.4462 1 13.4462 1C 13.4462 1 13.4462 1 13.4462 1C 13.4462 1 13.4462 1 13.4462 1C 13.4462 1 13.4462 1 13.4462 1C 13.4462 1 13.4462 1 13.4462 1C 13.4462 1 13.4462 1 13.4462 1C 13.4462 1 13.4462 1 13.4462 1C 13.4462 1 13.4462 1 13.4462 1C 13.4462 1 13.4462 1 13.4462 1C 13.4462 1 13.4462 1 13.4462 1C 13.4462 1 13.4462 1 13.4462 1C 13.4462 1 13.4462 1 13.4462 1C 13.4462 1 13.4462 1 13.4462 1C 13.4462 1 13.4462 1 13.4462 1C 13.4462 1 13.4462 1 13.4462 1C 13.4462 1 13.4462 1 13.4462 1C 13.4462 1 13.4462 1 13.4462 1C 13.4462 1 13.4462 1 13.4462 1C 13.4462 1 13.4462 1 13.4462 1C 13.4462 1 13.4462 1 13.4462 1C 13.4462 1 13.4462 1 13.4462 1C 13.4462 1 13.4462 1 13.4462 1C 13.4462 1 13.4462 1 13.4462 1C 13.4462 1 13.4462 1 13.4462 1C 13.4462 1 13.4462 1 13.4462 1C 13.4462 1 13.4462 1 13.4462 1C 13.4462 1 13.4462 1 13.4462 1C 13.4462 1 13.4462 1 13.4462 1C 13.4462 1 13.4462 1 13.4462 1C 13.4462 1 13.4462 1 13.4462 1C 13.4462 1 13.4462 1 13.4462 1C 13.4462 1 13.4462 1 13.4462 1C 13.4462 1 13.4462 1 13.4462 1C 13.4462 1 13.4462 1 13.4462 1C 13.4462 1 13.4462 1 13.4462 1C 13.4462 1 13.4462 1 13.4462 1C 13.4462 1 13.4462 1 13.4462 1C 13.4462 1 13.4462 1 13.4462 1C 13.4462 1 13.4462 1 13.4462 1C 13.4462 1 13.4462 1 13.4462 1C 13.4462 1 13.4462 1 13.4462 1C 13.4462 1 13.4462 1 13.4462 1C 13.4462 1 13.4462 1 13.4462 1C 13.4462 1 13.4462 1 13.4462 1C 13.4462 1 13.4462 1 13.4462 1C 13.4462 1 13.4462 1 13.4462 1C 13.4462 1 13.4462 1 13.4462 1C 13.4462 1 13.4462 1 13.4462 1C 13.4462 1 13.4462 1 13.4462 1C 13.4462 1 13.4462 1 13.4462 1C 13.4462 1 13.4462 1 13.4462 1C 13.4462 1 13.4462 1 13.4462 1C 13.4462 1 13.4462 1 13.4462 1C 13.4462 1 13.4462 1 13.4462 1C 13.4462 1 13.4462 1 13.4462 1C 13.4462 1 13.4462 1 13.4462 1C 13.4462 1 13.4462 1 13.4462 1C 13.4462 1 13.4462 1 13.4462 1C 13.4462 1 13.4462 1 13.4462 1C 13.4462 1 13.4462 1 13.4462 1C 13.4462 1 13.4462 1 13.4462 1C 13.4462 1 13.4462 1 13.4462 1C 13.4462 1 13.4462 1 13.4462 1C 13.4462 1 13.4462 1 13.4462 1C 13.4462 1 13.4462 1 13.4462 1C 13.4462 1 13.4462 1 13.4462 1C 13.4462 1 13.4462 1 13.4462 1C 13.4462 1 13.4462 1 13.4462 1C 13.4462 1 13.4462 1 13.4462 1C 13.4462 1 13.4462 1 13.4462 1C 13.4462 1 13.4462 1 13.4462 1C 13.4462 1 13.4462 1 13.4462 1C 13.4462 1 13.4462 1 13.4462 1C 13.4462 1 13.4462 1 13.4462 1C 13.4462 1 13.4462 1 13.4462 1C 13.4462 1 13.4462 1 13.4462 1C 13.4462 1 13.4462 1 13.4462 1C 13.4462 1 13.4462 1 13.4462 1C 13.4462 1 13.4462 1 13.4462 1C 13.4462 1 13.4462 1 13.4462 1C 13.4462 1 13.4462 1 13.4462 1C 13.4462 1 13.4462 1 13.4462 1C 13.4462 1 13.4462 1 13.4462 1C 13.4462 1 13.4462 1 13.4462 1C 13.4462 1 13.4462 1 13.4462 1C 13.4462 1 13.4462 1 13.4462 1C 13.4462 1 13.4462 1 13.4462 1C 13.4462 1 13.4462 1 13.4462 1C 13.4462 1 13.4462 1 13.4462 1C 13.4462 1 13.4462 1 13.4462 1C 13.4462 1 13.4462 1 13.4462 1C 13.4462 1 13.4462 1 13.4462 1C 13.4462 1 13.4462 1 13.4462 1C 13.4462 1 13.4462 1 13.4462 1C 13.4462 1 13.4462 1 13.4462 1C 13.4462 1 13.4462 1 13.4462 1C 13.4462 1 13.4462 1 13.4462 1C 13.4462 1 13.4462 1 13.4462 1C 13.4462 1 13.4462 1 13.4462 1C 13.4462 1 13.4462 1 13.4462 1C 13.4462 1 13.4462 1 13.4462 1C 13.4462 1 13.4462 1 13.4462 1C 13.4462 1 13.4462 1 13.4462 1C 13.4462 1 13.4462 1 13.4462 1C 13.4462 1 13.4462 1 13.4462 1C 13.4462 1 13.4462 1 13.4462 1C 13.4462 1 13.4462 1 13.4462 1C 13.4462 1 13.4462 1 13.4462 1C 13.4462 1 13.4462 1 13.4462 1C 13.4462 1 13.4462 1 13.4462 1C 13.4462 1 13.4462 1 13.4462 1C 13.4462 1 13.4462 1 13.4462 1C 13.4462 1 13.4462 1 13.4462 1C 13.4462 1 13.4462 1 13.4462 1C 13.4462 1 13.4462 1 13.4462 1C 13.4462 1 13.4462 1 13.4462 1C 13.4462 1 13.4462 1 13.4462 1C 13.4462 1 13.4462 1 13.4462 1C 13.4462 1 13.4462 1 13.4462 1C 13.4462 1 13.4462 1 13.4462 1C 13.4462 1 13.4462 1 13.4462 1C 13.4462 1 13.4462 1 13.4462 1C 13.4462 1 13.4462 1 13.4462 1C 13.4462 1 13.4462 1 13.4462 1C 13.4462 1 13.4462 1 13.4462 1C 13.4462 1 13.4462 1 13.4462 1C 13.4462 1 13.4462 1 13.4462 1C 13.4462 1 13.4462 1 13.4462 1C 13.4462 1 13.4462 1 13.4462 1C 13.4462 1 13.4462 1 13.4462 1C 13.4462 1 13.4462 1 13.4462 1C 13.4462 1 13.4462 1 13.4462 1C 13.4462 1 13.4462 1 13.4462 1C 13.4462 1 13.4462 1 13.4462 1C 13.4462 1 13.4462 1 13.4462 1C 13.4462 1 13.4462 1 13.4462 1C 13.4462 1 13.4462 1 13.4462 1C 13.4462 1 13.4462 1 13.4462 1C 13.4462 1 13.4462 1 13.4462 1C 13.4462 1 13.4462 1 13.4462 1C 13.4462 1 13.4462 1 13.4462 1C 13.4462 1 13.4462 1 13.4462 1C 13.4462 1 13.4462 1 13.4462 1C 13.4462 1 13.4462 1 13.4462 1C 13.4462 1 13.4462 1 13.4462 1C 13.4462 1 13.4462 1 13.4462 1C 13.4462 1 13.4462 1 13.4462 1C 13.4462 1 13.4462 1 13.4462 1C 13.4462 1 13.4462 1 13.4462 1C 13.4462 1 13.4462 1 13.4462 1C 13.4462 1 13.4462 1 13.4462 1C 13.4462 1 13.4462 1 13.4462 1C 13.4462 1 13.4462 1 13.4462 1C 13.4462 1 13.4462 1 13.4462 1C 13.4462 1 13.4462 1 13.4462 1C 13.4462 1 13.4462 1 13.4462 1C 13.4462 1 13.4462 1 13.4462 1C 13.4462 1 13.4462 1 13.4462 1C 13.4462 1 13.4462 1 13.4462 1C 13.4462 1 13.4462 1 13.4462 1C 13.4462 1 13.4462 1 13.4462 1C 13.4462 1 13.4462 1 13.4462 1C 13.4462 1 13.4462 1 13.4462 1C 13.4462 1 13.4462 1 13.4462 1C 13.4462 1 13.4462 1 13.4462 1C 13.4462 1 13.4462 1 13.4462 1C 13.4462 1 13.4462 1 13.4462 1C 13.4462 1 13.4462 1 13.4462 1C 13.4462 1 13.4462 1 13.4462 1C 13.4462 1 13.4462 1 13.4462 1C 13.4462 1 13.4462 1 13.4462 1C 13.4462 1 13.4462 1 13.4462 1C 13.4462 1 13.4462 1 13.4462 1C 13.4462 1 13.4462 1 13.4462 1C 13.4462 1 13.4462 1 13.4462 1C 13.4462 1 13.4462 1 13.4462 1C 13.4462 1 13.4462 1 13.4462 1C 13.4462 1 13.4462 1 13.4462 1C 13.4462 1 13.4462 1 13.4462 1C 13.4462 1 13.4462 1 13.4462 1C 13.4462 1 13.4462 1 13.4462 1C 13.4462 1 13.4462 1 13.4462 1C 13.4462 1 13.4462 1 13.4462 1C 13.4462 1 13.4462 1 13.4462 1C 13.4462 1 13.4462 1 13.4462 1C 13.4462 1 13.4462 0 13.4462 -1C 13.4462 -1 13.4462 -1 13.4462 -1C 13.4462 -1 13.4462 -1 13.4462 -1C 13.4462 -1 13.4462 -1 13.4462 -1C 13.4462 -1 13.4462 -1 13.4462 -1C 13.4462 -1 13.4462 -1 13.4462 -1C 13.4462 -1 13.4462 -1 13.4462 -1C 13.4462 -1 13.4462 -1 13.4462 -1C 13.4462 -1 13.4462 -1 13.4462 -1C 13.4462 -1 13.4462 -1 13.4462 -1C 13.4462 -1 13.4462 -1 13.4462 -1C 13.4462 -1 13.4462 -1 13.4462 -1C 13.4462 -1 13.4462 -1 13.4462 -1C 13.4462 -1 13.4462 -1 13.4462 -1C 13.4462 -1 13.4462 -1 13.4462 -1C 13.4462 -1 13.4462 -1 13.4462 -1C 13.4462 -1 13.4462 -1 13.4462 -1C 13.4462 -1 13.4462 -1 13.4462 -1C 13.4462 -1 13.4462 -1 13.4462 -1C 13.4462 -1 13.4462 -1 13.4462 -1C 13.4462 -1 13.4462 -1 13.4462 -1C 13.4462 -1 13.4462 -1 13.4462 -1C 13.4462 -1 13.4462 -1 13.4462 -1C 13.4462 -1 13.4462 -1 13.4462 -1C 13.4462 -1 13.4462 -1 13.4462 -1C 13.4462 -1 13.4462 -1 13.4462 -1C 13.4462 -1 13.4462 -1 13.4462 -1C 13.4462 -1 13.4462 -1 13.4462 -1C 13.4462 -1 13.4462 -1 13.4462 -1C 13.4462 -1 13.4462 -1 13.4462 -1C 13.4462 -1 13.4462 -1 13.4462 -1C 13.4462 -1 13.4462 -1 13.4462 -1C 13.4462 -1 13.4462 -1 13.4462 -1C 13.4462 -1 13.4462 -1 13.4462 -1C 13.4462 -1 13.4462 -1 13.4462 -1C 13.4462 -1 13.4462 -1 13.4462 -1C 13.4462 -1 13.4462 -1 13.4462 -1C 13.4462 -1 13.4462 -1 13.4462 -1C 13.4462 -1 13.4462 -1 13.4462 -1C 13.4462 -1 13.4462 -1 13.4462 -1C 13.4462 -1 13.4462 -1 13.4462 -1C 13.4462 -1 13.4462 -1 13.4462 -1C 13.4462 -1 13.4462 -1 13.4462 -1C 13.4462 -1 13.4462 -1 13.4462 -1C 13.4462 -1 13.4462 -1 13.4462 -1C 13.4462 -1 13.4462 -1 13.4462 -1C 13.4462 -1 13.4462 -1 13.4462 -1C 13.4462 -1 13.4462 -1 13.4462 -1C 13.4462 -1 13.4462 -1 13.4462 -1C 13.4462 -1 13.4462 -1 13.4462 -1C 13.4462 -1 13.4462 -1 13.4462 -1C 13.4462 -1 13.4462 -1 13.4462 -1C 13.4462 -1 13.4462 -1 13.4462 -1C 13.4462 -1 13.4462 -1 13.4462 -1C 13.4462 -1 13.4462 -1 13.4462 -1C 13.4462 -1 13.4462 -1 13.4462 -1C 13.4462 -1 13.4462 -1 13.4462 -1C 13.4462 -1 13.4462 -1 13.4462 -1C 13.4462 -1 13.4462 -1 13.4462 -1C 13.4462 -1 13.4462 -1 13.4462 -1C 13.4462 -1 13.4462 -1 13.4462 -1C 13.4462 -1 13.4462 -1 13.4462 -1C 13.4462 -1 13.4462 -1 13.4462 -1C 13.4462 -1 13.4462 -1 13.4462 -1C 13.4462 -1 13.4462 -1 13.4462 -1C 13.4462 -1 13.4462 -1 13.4462 -1C 13.4462 -1 13.4462 -1 13.4462 -1C 13.4462 -1 13.4462 -1 13.4462 -1C 13.4462 -1 13.4462 -1 13.4462 -1C 13.4462 -1 13.4462 -1 13.4462 -1C 13.4462 -1 13.4462 -1 13.4462 -1C 13.4462 -1 13.4462 -1 13.4462 -1C 13.4462 -1 13.4462 -1 13.4462 -1C 13.4462 -1 13.4462 -1 13.4462 -1C 13.4462 -1 13.4462 -1 13.4462 -1C 13.4462 -1 13.4462 -1 13.4462 -1C 13.4462 -1 13.4462 -1 13.4462 -1C 13.4462 -1 13.4462 -1 13.4462 -1C 13.4462 -1 13.4462 -1 13.4462 -1C 13.4462 -1 13.4462 -1 13.4462 -1C 13.4462 -1 13.4462 -1 13.4462 -1C 13.4462 -1 13.4462 -1 13.4462 -1C 13.4462 -1 13.4462 -1 13.4462 -1C 13.4462 -1 13.4462 -1 13.4462 -1C 13.4462 -1 13.4462 -1 13.4462 -1C 13.4462 -1 13.4462 -1 13.4462 -1C 13.4462 -1 13.4462 -1 13.4462 -1C 13.4462 -1 13.4462 -1 13.4462 -1C 13.4462 -1 13.4462 -1 13.4462 -1C 13.4462 -1 13.4462 -1 13.4462 -1C 13.4462 -1 13.4462 -1 13.4462 -1C 13.4462 -1 13.4462 -1 13.4462 -1C 13.4462 -1 13.4462 -1 13.4462 -1C 13.4462 -1 13.4462 -1 13.4462 -1C 13.4462 -1 13.4462 -1 13.4462 -1C 13.4462 -1 13.4462 -1 13.4462 -1C 13.4462 -1 13.4462 -1 13.4462 -1C 13.4462 -1 13.4462 -1 13.4462 -1C 13.4462 -1 13.4462 -1 13.4462 -1C 13.4462 -1 13.4462 -1 13.4462 -1C 13.4462 -1 13.4462 -1 13.4462 -1C 13.4462 -1 13.4462 -1 13.4462 -1C 13.4462 -1 13.4462 -1 13.4462 -1C 13.4462 -1 13.4462 -1 13.4462 -1C 13.4462 -1 13.4462 -1 13.4462 -1C 13.4462 -1 13.4462 -1 13.4462 -1C 13.4462 -1 13.4462 -1 13.4462 -1C 13.4462 -1 13.4462 -1 13.4462 -1C 13.4462 -1 13.4462 -1 13.4462 -1L 13.4462 1C 13.4462 1 13.4462 1 13.4462 1C 13.4462 1 13.4462 1 13.4462 1C 13.4462 1 13.4462 1 13.4462 1C 13.4462 1 13.4462 1 13.4462 1C 13.4462 1 13.4462 1 13.4462 1C 13.4462 1 13.4462 1 13.4462 1C 13.4462 1 13.4462 1 13.4462 1C 13.4462 1 13.4462 1 13.4462 1C 13.4462 1 13.4462 1 13.4462 1C 13.4462 1 13.4462 1 13.4462 1C 13.4462 1 13.4462 1 13.4462 1C 13.4462 1 13.4462 1 13.4462 1C 13.4462 1 13.4462 1 13.4462 1C 13.4462 1 13.4462 1 13.4462 1C 13.4462 1 13.4462 1 13.4462 1C 13.4462 1 13.4462 1 13.4462 1C 13.4462 1 13.4462 1 13.4462 1C 13.4462 1 13.4462 1 13.4462 1C 13.4462 1 13.4462 1 13.4462 1C 13.4462 1 13.4462 1 13.4462 1C 13.4462 1 13.4462 1 13.4462 1C 13.4462 1 13.4462 1 13.4462 1C 13.4462 1 13.4462 1 13.4462 1C 13.4462 1 13.4462 1 13.4462 1C 13.4462 1 13.4462 1 13.4462 1C 13.4462 1 13.4462 1 13.4462 1C 13.4462 1 13.4462 1 13.4462 1C 13.4462 1 13.4462 1 13.4462 1C 13.4462 1 13.4462 1 13.4462 1C 13.4462 1 13.4462 1 13.4462 1C 13.4462 1 13.4462 1 13.4462 1C 13.4462 1 13.4462 1 13.4462 1C 13.4462 1 13.4462 1 13.4462 1C 13.4462 1 13.4462 1 13.4462 1C 13.4462 1 13.4462 1 13.4462 1C 13.4462 1 13.4462 1 13.4462 1C 13.4462 1 13.4462 1 13.4462 1C 13.4462 1 13.4462 1 13.4462 1C 13.4462 1 13.4462 1 13.4462 1C 13.4462 1 13.4462 1 13.4462 1C 13.4462 1 13.4462 1 13.4462 1C 13.4462 1 13.4462 1 13.4462 1C 13.4462 1 13.4462 1 13.4462 1C 13.4462 1 13.4462 1 13.4462 1C 13.4462 1 13.4462 1 13.4462 1C 13.4462 1 13.4462 1 13.4462 1C 13.4462 1 13.4462 1 13.4462 1C 13.4462 1 13.4462 1 13.4462 1C 13.4462 1 13.4462 1 13.4462 1C 13.4462 1 13.4462 1 13.4462 1C 13.4462 1 13.4462 1 13.4462 1C 13.4462 1 13.4462 1 13.4462 1C 13.4462 1 13.4462 1 13.4462 1C 13.4462 1 13.4462 1 13.4462 1C 13.4462 1 13.4462 1 13.4462 1C 13.4462 1 13.4462 1 13.4462 1C 13.4462 1 13.4462 1 13.4462 1C 13.4462 1 13.4462 1 13.4462 1C 13.4462 1 13.4462 1 13.4462 1C 13.4462 1 13.4462 1 13.4462 1C 13.4462 1 13.4462 1 13.4462 1C 13.4462 1 13.4462 1 13.4462 1C 13.4462 1 13.4462 1 13.4462 1C 13.4462 1 13.4462 1 13.4462 1C 13.4462 1 13.4462 1 13.4462 1C 13.4462 1 13.4462 1 13.4462 1C 13.4462 1 13.4462 1 13.4462 1C 13.4462 1 13.4462 1 13.4462 1C 13.4462 1 13.4462 1 13.4462 1C 13.4462 1 13.4462 1 13.4462 1C 13.4462 1 13.4462 1 13.4462 1C 13.4462 1 13.4462 1 13.4462 1C 13.4462 1 13.4462 1 13.4462 1C 13.4462 1 13.4462 1 13.4462 1C 13.4462 1 13.4462 1 13.4462 1C 13.4462 1 13.4462 1 13.4462 1C 13.4462 1 13.4462 1 13.4462 1C 13.4462 1 13.4462 1 13.4462 1C 13.4462 1 13.4462 1 13.4462 1C 13.4462 1 13.4462 1 13.4462 1C 13.4462 1 13.4462 1 13.4462 1C 13.4462 1 13.4462 1 13.4462 1C 13.4462 1 13.4462 1 13.4462 1C 13.4462 1 13.4462 1 13.4462 1C 13.4462 1 13.4462 1 13.4462 1C 13.4462 1 13.4462 1 13.4462 1C 13.4462 1 13.4462 1 13.4462 1C 13.4462 1 13.4462 1 13.4462 1C 13.4462 1 13.4462 1 13.4462 1C 13.4462 1 13.4462 1 13.4462 1C 13.4462 1 13.4462 1 13.4462 1C 13.4462 1 13.4462 1 13.4462 1C 13.4462 1 13.4462 1 13.4462 1C 13.4462 1 13.4462 1 13.4462 1C 13.4462 1 13.4462 1 13.4462 1C 13.4462 1 13.4462 1 13.4462 1C 13.4462 1 13.4462 1 13.4462 1C 13.4462 1 13.4462 1 13.4462 1C 13.4462 1 13.4462 1 13.4462 1C 13.4462 1 13.4462 1 13.4462 1C 13.4462 1 13.4462 1 13.4462 1C 13.4462 1 13.4462 1 13.4462 1C 13.4462 1 13.4462 1 13.4462 1C 13.4462 1 13.4462 1 13.4462 1C 13.4462 1 13.4462 1 13.4462 1C 13.4462 1 13.4462 1 13.4462 1C 13.4462 1 13.4462 1 13.4462 1C 13.4462 1 13.4462 1 13.4462 1C 13.4462 0 13.4462 -1 13.4462 -1C 13.4462 -1 13.4462 -1 13.4462 -1C 13.4462 -1 13.4462 -1 13.4462 -1C 13.4462 -1 13.4462 -1 13.4462 -1C 13.4462 -1 13.4462 -1 13.4462 -1C 13.4462 -1 13.4462 -1 13.4462 -1C 13.4462 -1 13.4462 -1 13.4462 -1C 13.4462 -1 13.4462 -1 13.4462 -1C 13.4462 -1 13.4462 -1 13.4462 -1C 13.4462 -1 13.4462 -1 13.4462 -1C 13.4462 -1 13.4462 -1 13.4462 -1C 13.4462 -1 13.4462 -1 13.4462 -1C 13.4462 -1 13.4462 -1 13.4462 -1C 13.4462 -1 13.4462 -1 13.4462 -1C 13.4462 -1 13.4462 -1 13.4462 -1C 13.4462 -1 13.4462 -1 13.4462 -1C 13.4462 -1 13.4462 -1 13.4462 -1C 13.4462 -1 13.4462 -1 13.4462 -1C 13.4462 -1 13.4462 -1 13.4462 -1C 13.4462 -1 13.4462 -1 13.4462 -1C 13.4462 -1 13.4462 -1 13.4462 -1C 13.4462 -1 13.4462 -1 13.4462 -1C 13.4462 -1 13.4462 -1 13.4462 -1C 13.4462 -1 13.4462 -1 13.4462 -1C 13.4462 -1 13.4462 -1 13.4462 -1C 13.4462 -1 13.4462 -1 13.4462 -1C 13.4462 -1 13.4462 -1 13.4462 -1C 13.4462 -1 13.4462 -1 13.4462 -1C 13.4462 -1 13.4462 -1 13.4462 -1C 13.4462 -1 13.4462 -1 13.4462 -1C 13.4462 -1 13.4462 -1 13.4462 -1C 13.4462 -1 13.4462 -1 13.4462 -1C 13.4462 -1 13.4462 -1 13.4462 -1C 13.4462 -1 13.4462 -1 13.4462 -1C 13.4462 -1 13.4462 -1 13.4462 -1C 13.4462 -1 13.4462 -1 13.4462 -1C 13.4462 -1 13.4462 -1 13.4462 -1C 13.4462 -1 13.4462 -1 13.4462 -1C 13.4462 -1 13.4462 -1 13.4462 -1C 13.4462 -1 13.4462 -1 13.4462 -1C 13.4462 -1 13.4462 -1 13.4462 -1C 13.4462 -1 13.4462 -1 13.4462 -1C 13.4462 -1 13.4462 -1 13.4462 -1C 13.4462 -1 13.4462 -1 13.4462 -1C 13.4462 -1 13.4462 -1 13.4462 -1C 13.4462 -1 13.4462 -1 13.4462 -1C 13.4462 -1 13.4462 -1 13.4462 -1C 13.4462 -1 13.4462 -1 13.4462 -1C 13.4462 -1 13.4462 -1 13.4462 -1C 13.4462 -1 13.4462 -1 13.4462 -1C 13.4462 -1 13.4462 -1 13.4462 -1C 13.4462 -1 13.4462 -1 13.4462 -1C 13.4462 -1 13.4462 -1 13.4462 -1C 13.4462 -1 13.4462 -1 13.4462 -1C 13.4462 -1 13.4462 -1 13.4462 -1C 13.4462 -1 13.4462 -1 13.4462 -1C 13.4462 -1 13.4462 -1 13.4462 -1C 13.4462 -1 13.4462 -1 13.4462 -1C 13.4462 -1 13.4462 -1 13.4462 -1C 13.4462 -1 13.4462 -1 13.4462 -1C 13.4462 -1 13.4462 -1 13.4462 -1C 13.4462 -1 13.4462 -1 13.4462 -1C 13.4462 -1 13.4462 -1 13.4462 -1C 13.4462 -1 13.4462 -1 13.4462 -1C 13.4462 -1 13.4462 -1 13.4462 -1C 13.4462 -1 13.4462 -1 13.4462 -1C 13.4462 -1 13.4462 -1 13.4462 -1C 13.4462 -1 13.4462 -1 13.4462 -1C 13.4462 -1 13.4462 -1 13.4462 -1C 13.4462 -1 13.4462 -1 13.4462 -1C 13.4462 -1 13.4462 -1 13.4462 -1C 13.4462 -1 13.4462 -1 13.4462 -1C 13.4462 -1 13.4462 -1 13.4462 -1C 13.4462 -1 13.4462 -1 13.4462 -1C 13.4462 -1 13.4462 -1 13.4462 -1C 13.4462 -1 13.4462 -1 13.4462 -1C 13.4462 -1 13.4462 -1 13.4462 -1C 13.4462 -1 13.4462 -1 13.4462 -1C 13.4462 -1 13.4462 -1 13.4462 -1C 13.4462 -1 13.4462 -1 13.4462 -1C 13.4462 -1 13.4462 -1 13.4462 -1C 13.4462 -1 13.4462 -1 13.4462 -1C 13.4462 -1 13.4462 -1 13.4462 -1C 13.4462 -1 13.4462 -1 13.4462 -1C 13.4462 -1 13.4462 -1 13.4462 -1C 13.4462 -1 13.4462 -1 13.4462 -1C 13.4462 -1 13.4462 -1 13.4462 -1C 13.4462 -1 13.4462 -1 13.4462 -1C 13.4462 -1 13.4462 -1 13.4462 -1C 13.4462 -1 13.4462 -1 13.4462 -1C 13.4462 -1 13.4462 -1 13.4462 -1C 13.4462 -1 13.4462 -1 13.4462 -1C 13.4462 -1 13.4462 -1 13.4462 -1C 13.4462 -1 13.4462 -1 13.4462 -1C 13.4462 -1 13.4462 -1 13.4462 -1C 13.4462 -1 13.4462 -1 13.4462 -1C 13.4462 -1 13.4462 -1 13.4462 -1C 13.4462 -1 13.4462 -1 13.4462 -1C 13.4462 -1 13.4462 -1 13.4462 -1C 13.4462 -1 13.4462 -1 13.4462 -1C 13.4462 -1 13.4462 -1 13.4462 -1C 13.4462 -1 13.4462 -1 13.4462 -1C 13.4462 -1 13.4462 -1 13.4462 -1C 13.4462 -1 13.4462 -1 13.4462 -1C 13.4462 -1 13.4462 -1 13.4462 -1C 13.4462 -1 13.4462 -1 13.4462 -1C 13.4462 -1 13.4462 -1 13.4462 -1C 13.4462 -1 13.4462 -1 13.4462 -1C 13.4462 -1 13.4462 -1 13.4462 -1C 13.4462 -1 13.4462 -1 13.4462 -1C 13.4462 -1 13.4462 -1 13.4462 -1C 13.4462 -1 13.4462 -1 13.4462 -1C 13.4462 -1 13.4462 -1 13.4462 -1C 13.4462 -1 13.4462 -1 13.4462 -1C 13.4462 -1 13.4462 -1 13.4462 -1C 13.4462 -1 13.4462 -1 13.4462 -1C 13.4462 -1 13.4462 -1 13.4462 -1C 13.4462 -1 13.4462 -1 13.4462 -1C 13.4462 -1 13.4462 -1 13.4462 -1C 13.4462 -1 13.4462 -1 13.4462 -1C 13.4462 -1 13.4462 -1 13.4462 -1C 13.4462 -1 13.4462 -1 13.4462 -1C 13.4462 -1 13.4462 -1 13.4462 -1C 13.4462 -1 13.4462 -1 13.4462 -1C 13.4462 -1 13.4462 -1 13.4462 -1C 13.4462 -1 13.4462 -1 13.4462 -1C 13.4462 -1 13.4462 -1 13.4462 -1C 13.4462 -1 13.4462 -1 13.4462 -1C 13.4462 -1 13.4462 -1 13.4462 -1C 13.4462 -1 13.4462 -1 13.4462 -1C 13.4462 -1 13.4462 -1 13.4462 -1C 13.4462 -1 13.4462 -1 13.4462 -1C 13.4462 -1 13.4462 -1 13.4462 -1C 13.4462 -1 13.4462 -1 13.4462 -1C 13.4462 -1 13.4462 -1 13.4462 -1C 13.4462 -1 13.4462 -1 13.4462 -1C 13.4462 -1 13.4462 -1 13.4462 -1C 13.4462 -1 13.4462 -1 13.4462 -1C 13.4462 -1 13.4462 -1 13.4462 -1C 13.4462 -1 13.4462 -1 13.4462 -1C 13.4462 -1 13.4462 -1 13.4462 -1C 13.4462 -1 13.4462 -1 13.4462 -1C 13.4462 -1 13.4462 -1 13.4462 -1C 13.4462 -1 13.4462 -1 13.4462 -1C 13.4462 -1 13.4462 -1 13.4462 -1C 13.4462 -1 13.4462 -1 13.4462 -1C 13.4462 -1 13.4462 -1 13.4462 -1C 13.4462 -1 13.4462 -1 13.4462 -1C 13.4462 -1 13.4462 -1 13.4462 -1C 13.4462 -1 13.4462 -1 13.4462 -1C 13.4462 -1 13.4462 -1 13.4462 -1C 13.4462 -1 13.4462 -1 13.4462 -1C 13.4462 -1 13.4462 -1 13.4462 -1C 13.4462 -1 13.4462 -1 13.4462 -1C 13.4462 -1 13.4462 -1 13.4462 -1C 13.4462 -1 13.4462 -1 13.4462 -1C 13.4462 -1 13.4462 -1 13.4462 -1C 13.4462 -1 13.4462 -1 13.4462 -1C 13.4462 -1 13.4462 -1 13.4462 -1C 13.4462 -1 13.4462 -1 13.4462 -1C 13.4462 -1 13.4462 -1 13.4462 -1C 13.4462 -1 13.4462 -1 13.4462 -1C 13.4462 -1 13.4462 -1 13.4462 -1C 13.4462 -1 13.4462 -1 13.4462 -1C 13.4462 -1 13.4462 -1 13.4462 -1C 13.4462 -1 13.4462 -1 13.4462 -1C 13.4462 -1 13.4462 -1 13.4462 -1C 13.4462 -1 13.4462 -1 13.4462 -1C 13.4462 -1 13.4462 -1 13.4462 -1C 13.4462 -1 13.4462 -1 13.4462 -1C 13.4462 -1 13.4462 -1 13.4462 -1C 13.4462 -1 13.4462 -1 13.4462 -1C 13.4462 -1 13.4462 -1 13.4462 -1C 13.4462 -1 13.4462 -1 13.4462 -1C 13.4462 -1 13.4462 -1 13.4462 -1C 13.4462 -1 13.4462 -1 13.4462 -1C 13.4462 -1 13.4462 -1 13.4462 -1C 13.4462 -1 13.4462 -1 13.4462 -1C 13.4462 -1 13.4462 -1 13.4462 -1C 13.4462 -1 13.4462 -1 13.4462 -1C 13.4462 -1 13.4462 -1 13.4462 -1C 13.4462 -1 13.4462 -1 13.4462 -1C 13.4462 -1 13.4462 -1 13.4462 -1C 13.4462 -1 13.4462 -1 13.4462 -1C 13.4462 -1 13.4462 -1 13.4462 -1C 13.4462 -1 13.4462 -1 13.4462 -1C 13.4462 -1 13.4462 -1 13.4462 -1C 13.4462 -1 13.4462 -1 13.4462 -1C 13.4462 -1 13.4462 -1 13.4462 -1C 13.4462 -1 13.4462 -1 13.4462 -1C 13.4462 -1 13.4462 -1 13.4462 -1C 13.4462 -1 13.4462 -1 13.4462 -1C 13.4462 -1 13.4462 -1 13.4462 -1C 13.4462 -1 13.4462 -1 13.4462 -1C 13.4462 -1 13.4462 -1 13.4462 -1C 13.4462 -1 13.4462 -1 13.4462 -1C 13.4462 -1 13.4462 -1 13.4462 -1C 13.4462 -1 13.4462 -1 13.4462 -1C 13.4462 -1 13.4462 -1 13.4462 -1C 13.4462 -1 13.4462 -1 13.4462 -1C 13.4462 -1 13.4462 -1 13.4462 -1C 13.4462 -1 13.4462 -1 13.4462 -1C 13.4462 -1 13.4462 -1 13.4462 -1C 13.4462 -1 13.4462 -1 13.4462 -1C 13.4462 -1 13.4462 -1 13.4462 -1C 13.4462 -1 13.4462 -1 13.4462 -1C 13.4462 -1 13.4462 -1 13.4462 -1C 13.4462 -1 13.4462 -1 13.4462 -1C 13.4462 -1 13.4462 -1 13.4462 -1C 13.4462 -1 13.4462 -1 13.4462 -1C 13.4462 -1 13.4462 -1 13.4462 -1C 13.4462 -1 13.4462 -1 13.4462 -1C 13.4462 -1 13.4462 -1 13.4462 -1C 13.4462 -1 13.4462 -1 13.4462 -1C 13.4462 -1 13.4462 -1 13.4462 -1C 13.4462 -1 13.4462 -1 13.4462 -1C 13.4462 -1 13.4462 -1 13.4462 -1C 13.4462 -1 13.4462 -1 13.4462 -1C 13.4462 -1 13.4462 -1 13.4462 -1C 13.4462 -1 13.4462 -1 13.4462 -1C 13.4462 -1 13.4462 -1 13.4462 -1C 13.4462 -1 13.4462 -1 13.4462 -1C 13.4462 -1 13.4462 -1 13.4462 -1C 13.4462 -1 13.4462 -1 13.4462 -1C 13.4462 -1 13.4462 -1 13.4462 -1C 13.4462 -1 13.4462 -1 13.4462 -1C 13.4462 -1 13.4462 -1 13.4462 -1C 13.4462 -1 13.4462 -1 13.4462 -1C 13.4462 -1 13.4462 -1 13.4462 -1C 13.4462 -1 13.4462 -1 13.4462 -1C 13.4462 -1 13.4462 -1 13.4462 -1C 13.4462 -1 13.4462 -1 13.4462 -1C 13.4462 -1 13.4462 -1 13.4462 -1C 13.4462 -1 13.4462 -1 13.4462 -1C 13.4462 -1 13.4462 -1 13.4462 -1C 13.4462 -1 13.4462 -1 13.4462 -1C 13.4462 -1 13.4462 -1 13.4462 -1C 13.4462 -1 13.4462 -1 13.4462 -1C 13.4462 -1 13.4462 -1 13.4462 -1C 13.4462 -1 13.4462 -1 13.4462 -1C 13.4462 -1 13.4462 -1 13.4462 -1C 13.4462 -1 13.4462 -1 13.4462 -1C 13.4462 -1 13.4462 -1 13.4462 -1C 13.4462 -1 13.4462 -1 13.4462 -1C 13.4462 -1 13.4462 -1 13.4462 -1C 13.4462 -1 13.4462 -1 13.4462 -1C 13.4462 -1 13.4462 -1 13.4462 -1C 13.4462 -1 13.4462 -1 13.4462 -1C 13.4462 -1 13.4462 -1 13.4462 -1C 13.4462 -1 13.4462 -1 13.4462 -1C 13.4462 -1 13.4462 -1 13.4462 -1C 13.4462 -1 13.4462 -1 13.4462 -1C 13.4462 -1 13.4462 -1 13.4462 -1C 13.4462 -1 13.4462 -1 13.4462 -1C 13.4462 -1 13.4462 -1 13.4462 -1C 13.4462 -1 13.4462 -1 13.4462 -1C 13.4462 -1 13.4462 -1 13.4462 -1C 13.4462 -1 13.4462 -1 13.4462 -1C 13.4462 -1 13.4462 -1 13.4462 -1C 13.4462 -1 13.4462 -1 13.4462 -1C 13.4462 -1 13.4462 -1 13.4462 -1C 13.4462 -1 13.4462 -1 13.4462 -1C 13.4462 -1 13.4462 -1 13.4462 -1C 13.4462 -1 13.4462 -1 13.4462 -1C 13.4462 -1 13.4462 -1 13.4462 -1C 13.4462 -1 13.4462 -1 13.4462 -1C 13.4462 -1 13.4462 -1 13.4462 -1C 13.4462 -1 13.4462 -1 13.4462 -1C 13.4462 -1 13.4462 -1 13.4462 -1C 13.4462 -1 13.4462 -1 13.4462 -1C 13.4462 -1 13.4462 -1 13.4462 -1C 13.4462 -1 13.4462 -1 13.4462 -1C 13.4462 -1 13.4462 -1 13.4462 -1C 13.4462 -1 13.4462 -1 13.4462 -1C 13.4462 -1 13.4462 -1 13.4462 -1C 13.4462 -1 13.4462 -1 13.4462 -1C 13.4462 -1 13.4462 -1 13.4462 -1C 13.4462 -1 13.4462 -1 13.4462 -1C 13.4462 -1 13.4462 -1 13.4462 -1C 13.4462 -1 13.4462 -1 13.4462 -1C 13.4462 -1 13.4462 -1 13.4462 -1C 13.4462 -1 13.4462 -1 13.4462 -1C 13.4462 -1 13.4462 -1 13.4462 -1C 13.4462 -1 13.4462 -1 13.4462 -1C 13.4462 -1 13.4462 -1 13.4462 -1C 13.4462 -1 13.4462 -1 13.4462 -1C 13.4462 -1 13.4462 -1 13.4462 -1C 13.4462 -1 13.4462 -1 13.4462 -1C 13.4462 -1 13.4462 -1 13.4462 -1C 13.4462 -1 13.4462 -1 13.4462 -1C 13.4462 -1 13.4462 -1 13.4462 -1C 13.4462 -1 13.4462 -1 13.4462 -1C 13.4462 -1 13.4462 -1 13.4462 -1C 13.4462 -1 13.4462 -1 13.4462 -1C 13.4462 -1 13.4462 -1 13.4462 -1C 13.4462 -1 13.4462 0 13.4462 1C 13.4462 1 13.4462 1 13.4462 1C 13.4462 1 13.4462 1 13.4462 1C 13.4462 1 13.4462 1 13.4462 1C 13.4462 1 13.4462 1 13.4462 1C 13.4462 1 13.4462 1 13.4462 1C 13.4462 1 13.4462 1 13.4462 1C 13.4462 1 13.4462 1 13.4462 1C 13.4462 1 13.4462 1 13.4462 1C 13.4462 1 13.4462 1 13.4462 1C 13.4462 1 13.4462 1 13.4462 1C 13.4462 1 13.4462 1 13.4462 1C 13.4462 1 13.4462 1 13.4462 1C 13.4462 1 13.4462 1 13.4462 1C 13.4462 1 13.4462 1 13.4462 1C 13.4462 1 13.4462 1 13.4462 1C 13.4462 1 13.4462 1 13.4462 1C 13.4462 1 13.4462 1 13.4462 1C 13.4462 1 13.4462 1 13.4462 1C 13.4462 1 13.4462 1 13.4462 1C 13.4462 1 13.4462 1 13.4462 1C 13.4462 1 13.4462 1 13.4462 1C 13.4462 1 13.4462 1 13.4462 1C 13.4462 1 13.4462 1 13.4462 1C 13.4462 1 13.4462 1 13.4462 1C 13.4462 1 13.4462 1 13.4462 1C 13.4462 1 13.4462 1 13.4462 1C 13.4462 1 13.4462 1 13.4462 1C 13.4462 1 13.4462 1 13.4462 1C 13.4462 1 13.4462 1 13.4462 1C 13.4462 1 13.4462 1 13.4462 1C 13.4462 1 13.4462 1 13.4462 1C 13.4462 1 13.4462 1 13.4462 1C 13.4462 1 13.4462 1 13.4462 1C 13.4462 1 13.4462 1 13.4462 1C 13.4462 1 13.4462 1 13.4462 1C 13.4462 1 13.4462 1 13.4462 1C 13.4462 1 13.4462 1 13.4462 1C 13.4462 1 13.4462 1 13.4462 1C 13.4462 1 13.4462 1 13.4462 1C 13.4462 1 13.4462 1 13.4462 1C 13.4462 1 13.4462 1 13.4462 1C 13.4462 1 13.4462 1 13.4462 1C 13.4462 1 13.4462 1 13.4462 1C 13.4462 1 13.4462 1 13.4462 1C 13.4462 1 13.4462 1 13.4462 1C 13.4462 1 13.4462 1 13.4462 1C 13.4462 1 13.4462 1 13.4462 1C 13.4462 1 13.4462 1 13.4462 1C 13.4462 1 13.4462 1 13.4462 1C 13.4462 1 13.4462 1 13.4462 1C 13.4462 1 13.4462 1 13.4462 1C 13.4462 1 13.4462 1 13.4462 1C 13.4462 1 13.4462 1 13.4462 1C 13.4462 1 13.4462 1 13.4462 1C 13.4462 1 13.4462 1 13.4462 1C 13.4462 1 13.4462 1 13.4462 1C 13.4462 1 13.4462 1 13.4462 1C 13.4462 1 13.4462 1 13.4462 1C 13.4462 1 13.4462 1 13.4462 1C 13.4462 1 13.4462 1 13.4462 1C 13.4462 1 13.4462 1 13.4462 1C 13.4462 1 13.4462 1 13.4462 1C 13.4462 1 13.4462 1 13.4462 1C 13.4462 1 13.4462 1 13.4462 1C 13.4462 1 13.4462 1 13.4462 1C 13.4462 1 13.4462 1 13.4462 1C 13.4462 1 13.4462 1 13.4462 1C 13.4462 1 13.4462 1 13.4462 1C 13.4462 1 13.4462 1 13.4462 1C 13.4462 1 13.4462 1 13.4462 1C 13.4462 1 13.4462 1 13.4462 1C 13.4462 1 13.4462 1 13.4462 1C 13.4462 1 13.4462 1 13.4462 1C 13.4462 1 13.4462 1 13.4462 1C 13.4462 1 13.4462 1 13.4462 1C 13.4462 1 13.4462 1 13.4462 1C 13.4462 1 13.4462 1 13.4462 1C 13.4462 1 13.4462 1 13.4462 1C 13.4462 1 13.4462 1 13.4462 1C 13.4462 1 13.4462 1 13.4462 1C 13.4462 1 13.4462 1 13.4462 1C 13.4462 1 13.4462 1 13.4462 1C 13.4462 1 13.4462 1 13.4462 1C 13.4462 1 13.4462 1 13.4462 1C 13.4462 1 13.4462 1 13.4462 1C 13.4462 1 13.4462 1 13.4462 1C 13.4462 1 13.4462 1 13.4462 1C 13.4462 1 13.4462 1 13.4462 1C 13.4462 1 13.4462 1 13.4462 1C 13.4462 1 13.4462 1 13.4462 1C 13.4462 1 13.4462 1 13.4462 1C 13.4462 1 13.4462 1 13.4462 1C 13.4462 1 13.4462 1 13.4462 1C 13.4462 1 13.4462 1 13.4462 1C 13.4462 1 13.4462 1 13.4462 1C 13.4462 1 13.4462 1 13.4462 1C 13.4462 1 13.4462 1 13.4462 1C 13.4462 1 13.4462 1 13.4462 1C 13.4462 1 13.4462 1 13.4462 1C 13.4462 1 13.4462 1 13.4462 1C 13.4462 1 13.4462 1 13.4462 1C 13.4462 1 13.4462 1 13.4462 1C 13.4462 1 13.4462 1 13.4462 1C 13.4462 1 13.4462 1 13.4462 1C 13.4462 1 13.4462 1 13.4462 1C 13.4462 1 13.4462 1 13.4462 1C 13.4462 1 13.4462 1 13.4462 1C 13.4462 1 13.4462 1 13.4462 1L 13.4462 -1Z"/>
<path id="path4_fill" d="M 0 7C 0 3.13401 3.13401 0 7 0L 40.4154 0C 44.2814 0 47.4154 3.13401 47.4154 7L 47.4154 12.1739C 47.4154 16.0399 44.2814 19.1739 40.4154 19.1739L 7 19.1739C 3.134 19.1739 0 16.0399 0 12.1739L 0 7Z"/>
<path id="path5_fill" d="M 0 1.77536C 0 0.798244 0.792112 0 1.76923 0L 1.76923 0C 2.74635 0 3.53846 0.798244 3.53846 1.77536L 3.53846 1.77536C 3.53846 2.75248 2.74635 3.55072 1.76923 3.55072L 1.76923 3.55072C 0.792112 3.55072 0 2.75248 0 1.77536L 0 1.77536Z"/>
<path id="path6_stroke" d="M -0.856192 11.4761L -0.75995 14.5543L 1.23907 14.4918L 1.14283 11.4136L -0.856192 11.4761ZM 7.23614 22.3043L 40.4154 22.3043L 40.4154 20.3043L 7.23614 20.3043L 7.23614 22.3043ZM 48.4154 14.3043L 48.4154 11.1507L 46.4154 11.1507L 46.4154 14.3043L 48.4154 14.3043ZM 43.1254 5.86072L 42.2658 5.86072L 42.2658 7.86072L 43.1254 7.86072L 43.1254 5.86072ZM 35.4051 -1L 12.4619 -1L 12.4619 1L 35.4051 1L 35.4051 -1ZM 5.60114 5.86072L 4.58632 5.86072L 4.58632 7.86072L 5.60114 7.86072L 5.60114 5.86072ZM 8.0315 3.43036C 8.0315 4.77261 6.94339 5.86072 5.60114 5.86072L 5.60114 7.86072C 8.04796 7.86072 10.0315 5.87718 10.0315 3.43036L 8.0315 3.43036ZM 12.4619 -1C 10.015 -1 8.0315 0.98354 8.0315 3.43036L 10.0315 3.43036C 10.0315 2.08811 11.1196 1 12.4619 1L 12.4619 -1ZM 39.8355 3.43036C 39.8355 0.983541 37.8519 -1 35.4051 -1L 35.4051 1C 36.7473 1 37.8355 2.08811 37.8355 3.43036L 39.8355 3.43036ZM 42.2658 5.86072C 40.9236 5.86072 39.8355 4.77261 39.8355 3.43036L 37.8355 3.43036C 37.8355 5.87718 39.819 7.86072 42.2658 7.86072L 42.2658 5.86072ZM 48.4154 11.1507C 48.4154 8.22912 46.047 5.86072 43.1254 5.86072L 43.1254 7.86072C 44.9424 7.86072 46.4154 9.33369 46.4154 11.1507L 48.4154 11.1507ZM 40.4154 22.3043C 44.8337 22.3043 48.4154 18.7226 48.4154 14.3043L 46.4154 14.3043C 46.4154 17.6181 43.7291 20.3043 40.4154 20.3043L 40.4154 22.3043ZM -0.75995 14.5543C -0.624923 18.8732 2.9152 22.3043 7.23614 22.3043L 7.23614 20.3043C 3.99543 20.3043 1.34034 17.731 1.23907 14.4918L -0.75995 14.5543ZM 1.14283 11.4136C 1.08205 9.4696 2.64142 7.86072 4.58632 7.86072L 4.58632 5.86072C 1.51236 5.86072 -0.952251 8.40359 -0.856192 11.4761L 1.14283 11.4136Z"/>
<path id="path7_fill" d="M 9.2 4.61594C 9.2 7.16526 7.14051 9.23188 4.6 9.23188C 2.05949 9.23188 0 7.16526 0 4.61594C 0 2.06663 2.05949 0 4.6 0C 7.14051 0 9.2 2.06663 9.2 4.61594Z"/>
<path id="path8_stroke_2x" d="M 7.2 4.61594C 7.2 6.06722 6.02942 7.23188 4.6 7.23188L 4.6 11.2319C 8.2516 11.2319 11.2 8.2633 11.2 4.61594L 7.2 4.61594ZM 4.6 7.23188C 3.17058 7.23188 2 6.06722 2 4.61594L -2 4.61594C -2 8.2633 0.948403 11.2319 4.6 11.2319L 4.6 7.23188ZM 2 4.61594C 2 3.16467 3.17058 2 4.6 2L 4.6 -2C 0.948403 -2 -2 0.968587 -2 4.61594L 2 4.61594ZM 4.6 2C 6.02942 2 7.2 3.16467 7.2 4.61594L 11.2 4.61594C 11.2 0.968587 8.2516 -2 4.6 -2L 4.6 2Z"/>
<path id="path9_fill" d="M 0 4.97101C 0 2.23508 2.21791 0 4.95385 0L 4.95385 0C 7.68978 0 9.90769 2.23508 9.90769 4.97101L 9.90769 4.97101C 9.90769 7.70695 7.68978 9.94203 4.95385 9.94203L 4.95385 9.94203C 2.21791 9.94203 0 7.70695 0 4.97101L 0 4.97101Z"/>
<path id="path10_stroke_2x" d="M 4.95385 7.94203C 3.33148 7.94203 2 6.61139 2 4.97101L -2 4.97101C -2 8.8025 1.10435 11.942 4.95385 11.942L 4.95385 7.94203ZM 7.90769 4.97101C 7.90769 6.61139 6.57621 7.94203 4.95385 7.94203L 4.95385 11.942C 8.80334 11.942 11.9077 8.8025 11.9077 4.97101L 7.90769 4.97101ZM 4.95385 2C 6.57621 2 7.90769 3.33063 7.90769 4.97101L 11.9077 4.97101C 11.9077 1.13953 8.80334 -2 4.95385 -2L 4.95385 2ZM 4.95385 -2C 1.10435 -2 -2 1.13953 -2 4.97101L 2 4.97101C 2 3.33063 3.33148 2 4.95385 2L 4.95385 -2Z"/>
<path id="path11_fill" d="M 0 4.97101C 0 2.2256 2.2256 0 4.97101 0L 40.3213 0C 43.0667 0 45.2923 2.2256 45.2923 4.97101L 45.2923 4.97101C 45.2923 7.71643 43.0667 9.94203 40.3213 9.94203L 4.97101 9.94203C 2.22559 9.94203 0 7.71643 0 4.97101L 0 4.97101Z"/>
<path id="path12_stroke_2x" d="M 4.97101 2L 40.3213 2L 40.3213 -2L 4.97101 -2L 4.97101 2ZM 40.3213 7.94203L 4.97101 7.94203L 4.97101 11.942L 40.3213 11.942L 40.3213 7.94203ZM 4.97101 7.94203C 3.33017 7.94203 2 6.61186 2 4.97101L -2 4.97101C -2 8.821 1.12102 11.942 4.97101 11.942L 4.97101 7.94203ZM 43.2923 4.97101C 43.2923 6.61186 41.9621 7.94203 40.3213 7.94203L 40.3213 11.942C 44.1713 11.942 47.2923 8.821 47.2923 4.97101L 43.2923 4.97101ZM 40.3213 2C 41.9621 2 43.2923 3.33017 43.2923 4.97101L 47.2923 4.97101C 47.2923 1.12103 44.1713 -2 40.3213 -2L 40.3213 2ZM 4.97101 -2C 1.12103 -2 -2 1.12103 -2 4.97101L 2 4.97101C 2 3.33017 3.33017 2 4.97101 2L 4.97101 -2Z"/>
</defs>
</svg>
